<svg xmlns="http://www.w3.org/2000/svg" xmlns:xlink="http://www.w3.org/1999/xlink" width="32" height="32" viewBox="0 0 8.467 8.467" style="shape-rendering:crispEdges">
    <defs>
        <linearGradient id="a">
            <stop style="stop-color:#48ba43;stop-opacity:1" offset="0"/>
            <stop style="stop-color:#93e790;stop-opacity:1" offset="1"/>
        </linearGradient>
        <linearGradient xlink:href="#a" id="b" x1="3.364" y1="293.288" x2=".477" y2="297.119" gradientUnits="userSpaceOnUse"/>
    </defs>
    <g transform="translate(0 -288.533)">
        <rect style="fill:#04049b;fill-opacity:1;stroke:none;stroke-width:11.31590557;stroke-linecap:round;stroke-miterlimit:4;stroke-dasharray:none;stroke-opacity:1;paint-order:markers stroke fill" width="3" height="15.5" x="2" y="1.5" transform="matrix(.26458 0 0 .40968 1.058 288.977)" ry="0"/>
        <path style="fill:#04049b;fill-opacity:1;stroke:none;stroke-width:11.31590557;stroke-linecap:round;stroke-miterlimit:4;stroke-dasharray:none;stroke-opacity:1;paint-order:markers fill stroke" transform="matrix(.2065 0 0 .22679 2.62 288.911)" d="M-5 3h20.5v3.5H-5z"/>
        <path style="fill:#04049b;fill-opacity:1;stroke:none;stroke-width:11.31590557;stroke-linecap:round;stroke-miterlimit:4;stroke-dasharray:none;stroke-opacity:1;paint-order:markers fill stroke;shape-rendering:crispEdges" transform="matrix(.15488 0 0 .22679 2.362 291.557)" d="M-5 3h20.5v3.5H-5z"/>
        <rect style="fill:#04049b;fill-opacity:1;stroke:none;stroke-width:11.31590557;stroke-linecap:round;stroke-miterlimit:4;stroke-dasharray:none;stroke-opacity:1;paint-order:markers stroke fill;shape-rendering:crispEdges" width="3" height="15.5" x="2" y="1.5" transform="matrix(.17639 0 0 .27312 -5.248 291.695)" ry="0"/>
        <path style="fill:#04049b;fill-opacity:1;stroke:none;stroke-width:11.31590557;stroke-linecap:round;stroke-miterlimit:4;stroke-dasharray:none;stroke-opacity:1;paint-order:markers fill stroke;shape-rendering:crispEdges" transform="matrix(.14197 0 0 .15119 -4.185 291.652)" d="M-5 3h20.5v3.5H-5z"/>
        <path style="fill:#04049b;fill-opacity:1;stroke:none;stroke-width:11.31590557;stroke-linecap:round;stroke-miterlimit:4;stroke-dasharray:none;stroke-opacity:1;paint-order:markers fill stroke;shape-rendering:crispEdges" transform="matrix(.11616 0 0 .15119 -4.314 293.24)" d="M-5 3h20.5v3.5H-5z"/>
    </g>
</svg>
