<?xml version="1.0" standalone="yes"?>
<svg xmlns="http://www.w3.org/2000/svg" width="64" height="64">
<path style="fill:#010101; stroke:none;" d="M0 0L0 28L20 27C19.128 24.6074 15.6757 15.4447 20.3179 14.6312C25.418 13.7374 31.6417 24.7931 36 26.9722C43.0793 30.5119 56.1735 28 64 28L64 0L0 0z"/>
<path style="fill:#091593; stroke:none;" d="M20 27L9 27L9 36L20 36C18.588 38.9342 15.6833 52.5111 23.0193 48.338C29.4595 44.6744 33.4662 37.5244 38 32C34.6554 25.8833 28.8785 16.7491 22.0586 14.1759C15.4736 11.6913 18.8236 24.5555 20 27z"/>
<path style="fill:#0111ec; stroke:none;" d="M20 15L24 29L10 29L10 34L24 34L20 48L37 32L37 31L20 15z"/>
<path style="fill:#fc0103; stroke:none;" d="M0 28L0 35L10 35L10 28L0 28z"/>
<path style="fill:#01fe02; stroke:none;" d="M35 28L38 31L38 32L35 35L64 35L64 28L35 28z"/>
<path style="fill:#010101; stroke:none;" d="M0 35L0 64L64 64L64 35C56.1735 35 43.0793 32.4881 36 36.0278C31.6417 38.2069 25.418 49.2626 20.3179 48.3688C15.6757 47.5553 19.128 38.3926 20 36L0 35z"/>
</svg>
