<?xml version="1.0" standalone="yes"?>
<svg xmlns="http://www.w3.org/2000/svg" width="64" height="64">
<path style="fill:#010101; stroke:none;" d="M0 0L0 28C7.58153 28 20.1365 30.404 27 26.9722C31.3583 24.7931 37.582 13.7374 42.6821 14.6312C47.3243 15.4447 43.872 24.6074 43 27L64 28L64 0L0 0z"/>
<path style="fill:#061992; stroke:none;" d="M25 31L25 32C29.1901 37.4772 34.1732 46.2704 40.9414 48.8241C47.5264 51.3087 44.1764 38.4445 43 36L54 36L54 27L43 27C44.412 24.0658 47.3167 10.4889 39.9807 14.662C33.5404 18.3256 29.5338 25.4756 25 31z"/>
<path style="fill:#0119e3; stroke:none;" d="M42 15L26 31L26 32L43 48L39 34L53 34L53 29L39 29C41.5414 24.5472 44.1174 20.0936 42 15z"/>
<path style="fill:#fd0102; stroke:none;" d="M0 28L0 35L28 35L25 32L25 31L28 28L0 28z"/>
<path style="fill:#01fc03; stroke:none;" d="M53 28L53 35L64 35L64 28L53 28z"/>
<path style="fill:#010101; stroke:none;" d="M0 35L0 64L64 64L64 35L43 36C43.872 38.3926 47.3243 47.5553 42.6821 48.3688C37.582 49.2626 31.3583 38.2069 27 36.0278C20.1365 32.596 7.58153 35 0 35z"/>
</svg>
