<?xml version="1.0" standalone="yes"?>
<svg xmlns="http://www.w3.org/2000/svg" width="64" height="64">
<path style="fill:#010101; stroke:none;" d="M0 0L0 10L64 10L64 0L0 0z"/>
<path style="fill:#ff0101; stroke:none;" d="M0 10L0 17C8.73552 17 31.6194 21.5913 32 10L0 10z"/>
<path style="fill:#01ff01; stroke:none;" d="M32 10C32.8729 21.4424 55.4077 17 64 17L64 10L32 10z"/>
<path style="fill:#bcb831; stroke:none;" d="M32 15C28.1233 17.6671 8.31561 31.7403 18 35C10.5675 43.8817 21.5792 44.0899 28 41C28 45.3579 26.2086 54.8455 29.0278 58.3966C30.8067 60.6374 35.1381 60.2387 36.3966 57.6821C38.493 53.4235 37 45.684 37 41C43.4208 44.0899 54.4325 43.8817 47 35C56.8646 31.6796 36.3301 17.1612 32 15z"/>
<path style="fill:#d1df1b; stroke:none;" d="M32 16L16 33L23 33L16 41L30 37L30 58L35 58L35 37L49 41L42 33L49 33L32 16z"/>
<path style="fill:#010101; stroke:none;" d="M0 17L0 64L64 64L64 17L37 17C39.9246 21.1518 53.7372 30.9214 47 35C52.4979 44.1831 43.7399 43.4564 37 41C37 45.3414 38.9837 56.3071 34.6829 58.9529C26.1768 64.1858 28 44.6001 28 41C21.2601 43.4564 12.5021 44.1831 18 35C11.2628 30.9214 25.0754 21.1518 28 17L0 17z"/>
<path style="fill:#bcb831; stroke:none;" d="M32 23L23 33L32 24L33 24L42 33L32 23z"/>
</svg>
