<?xml version="1.0" standalone="yes"?>
<svg xmlns="http://www.w3.org/2000/svg" width="64" height="64">
<path style="fill:#010101; stroke:none;" d="M0 0L0 47L27 47C24.0754 42.8482 10.2628 33.0786 17 29C11.5021 19.8169 20.2601 20.5436 27 23C27 19.3999 25.1768 -0.185776 33.6829 5.04707C37.9837 7.69293 36 18.6586 36 23C42.7399 20.5436 51.4979 19.8169 46 29C52.7372 33.0786 38.9246 42.8482 36 47L64 47L64 0L0 0z"/>
<path style="fill:#bfba2f; stroke:none;" d="M27 23C20.5792 19.9101 9.56746 20.1183 17 29C7.31562 32.2598 27.1233 46.3329 31 49L32 49C35.8767 46.3329 55.6844 32.2598 46 29C53.4325 20.1183 42.4207 19.9101 36 23C36 18.316 37.493 10.5765 35.3966 6.3179C34.1381 3.7613 29.8067 3.36263 28.0278 5.6034C25.2086 9.15455 27 18.6421 27 23z"/>
<path style="fill:#e7ee0e; stroke:none;" d="M29 6L29 27L15 23L22 31L15 31L31 48L32 48L48 31L41 31L48 23L34 27L34 6L29 6z"/>
<path style="fill:#bfba2f; stroke:none;" d="M22 31L31 41L32 41L41 31L32 40L31 40L22 31z"/>
<path style="fill:#ff0101; stroke:none;" d="M0 47L0 54L32 54C31.1271 42.5576 8.5923 47 0 47z"/>
<path style="fill:#01ff01; stroke:none;" d="M32 54L64 54L64 47C55.2645 47 32.3806 42.4087 32 54z"/>
<path style="fill:#010101; stroke:none;" d="M0 54L0 64L64 64L64 54C55.7609 54 39.6719 50.9454 33 56C24.2418 51.3261 9.8037 54 0 54z"/>
<path style="fill:#e7ee0e; stroke:none;" d="M31 54L32 56L33 56L34 54L31 54z"/>
</svg>
