<?xml version="1.0" standalone="yes"?>
<svg xmlns="http://www.w3.org/2000/svg" width="64" height="64">
<path style="fill:#010101; stroke:none;" d="M0 0L0 47L27 47C24.1193 42.9105 5.86843 26.2887 21.9753 29.3765C23.7073 29.7086 25.3509 30.399 27 31C27 26.0677 24.0323 3.59847 31.9606 4.46605C38.9313 5.22882 36 25.9062 36 31C37.6491 30.399 39.2927 29.7086 41.0247 29.3765C57.1316 26.2887 38.8807 42.9105 36 47L64 47L64 0L0 0z"/>
<path style="fill:#bfba2f; stroke:none;" d="M27 31C24.5555 29.8236 11.6913 26.4736 14.1759 33.0586C16.6368 39.5809 25.4903 45.2095 31 49L32 49C37.5097 45.2095 46.3632 39.5809 48.8241 33.0586C51.3087 26.4736 38.4445 29.8236 36 31C36 26.1452 39.1318 -0.017952 29.3171 4.60802C24.2533 6.99479 27 26.0094 27 31z"/>
<path style="fill:#e3ed10; stroke:none;" d="M29 6L29 35L15 31L31 48L32 48L48 31L34 35L34 6L29 6z"/>
<path style="fill:#ff0101; stroke:none;" d="M0 47L0 54L32 54C31.1271 42.5576 8.5923 47 0 47z"/>
<path style="fill:#01ff01; stroke:none;" d="M32 54L64 54L64 47C55.2645 47 32.3806 42.4087 32 54z"/>
<path style="fill:#010101; stroke:none;" d="M0 54L0 64L64 64L64 54L0 54z"/>
</svg>
