<?xml version="1.0" standalone="yes"?>
<svg xmlns="http://www.w3.org/2000/svg" width="64" height="64">
<path style="fill:#010101; stroke:none;" d="M0 0L0 10L64 10L64 0L0 0z"/>
<path style="fill:#ff0101; stroke:none;" d="M0 10L0 17C8.73552 17 31.6194 21.5913 32 10L0 10z"/>
<path style="fill:#01ff01; stroke:none;" d="M32 10C32.8729 21.4424 55.4077 17 64 17L64 10L32 10z"/>
<path style="fill:#beba2f; stroke:none;" d="M32 15C26.4903 18.7905 17.6368 24.4191 15.1759 30.9414C12.6913 37.5264 25.5555 34.1764 28 33C28 37.9906 25.2533 57.0052 30.3171 59.392C40.1318 64.0179 37 37.8548 37 33C39.4445 34.1764 52.3087 37.5264 49.8241 30.9414C47.32 24.3046 38.0799 18.0346 32 15z"/>
<path style="fill:#d9e716; stroke:none;" d="M32 16L16 33L30 29L30 58L35 58L35 29L49 33L32 16z"/>
<path style="fill:#010101; stroke:none;" d="M0 17L0 64L64 64L64 17L37 17C39.8807 21.0895 58.1316 37.7113 42.0247 34.6235C40.2927 34.2914 38.6491 33.601 37 33C37 37.9323 39.9677 60.4015 32.0394 59.534C25.0687 58.7712 28 38.0938 28 33C26.3509 33.601 24.7073 34.2914 22.9753 34.6235C6.86843 37.7113 25.1193 21.0895 28 17L0 17z"/>
</svg>
