<?xml version="1.0" standalone="yes"?>
<svg xmlns="http://www.w3.org/2000/svg" width="64" height="64">
<path style="fill:#010101; stroke:none;" d="M0 0L0 27L17 10C13.5073 9.95872 4.41497 7.93819 9.60802 2.6034C12.5525 -0.42144 20.1689 1 24 1C47.2763 1 50 13.4951 50 34L64 33L64 0L0 0z"/>
<path style="fill:#609f11; stroke:none;" d="M17 10C12.298 14.702 3.55229 20.6431 1.17593 26.9414C-1.30866 33.5264 11.5555 30.1764 14 29C14 41.0973 11.6713 57.8144 27 61.4676C31.1641 62.46 35.7516 62 40 62C43.6139 62 52.4596 63.6019 54.9715 60.3966C59.7189 54.3387 50.7021 53.0131 47 53C51.702 48.298 60.4477 42.3569 62.8241 36.0586C65.3087 29.4736 52.4445 32.8236 50 34C50 21.9027 52.3287 5.18562 37 1.53241C32.8359 0.539997 28.2484 1 24 1C20.3861 1 11.5404 -0.601883 9.02855 2.6034C4.28112 8.66134 13.2979 9.98691 17 10z"/>
<path style="fill:#98ef63; stroke:none;" d="M10 3L10 8L36 7C31.7516 0.986874 16.7308 3 10 3z"/>
<path style="fill:#84e066; stroke:none;" d="M25 3L25 4L36 7L25 7L25 8C45.5514 8 43 21.2845 43 38L31 34L45 49L46 49L57 35L48 39C44.9588 26.2261 51.9143 7.0298 34 3.37963C31.0712 2.78286 27.9724 3.00033 25 3z"/>
<path style="fill:#7ad35b; stroke:none;" d="M37 4L38 5L37 4M40 5L41 6L40 5M43 7L44 8L43 7M36 8L37 9L36 8M44 9L45 10L44 9z"/>
<path style="fill:#010101; stroke:none;" d="M20 10C22.8428 14.0357 45.1631 33.9091 28.0247 30.6235C26.2927 30.2914 24.6491 29.601 23 29C23 47.1798 24.7646 53 44 53C41.1572 48.9643 18.8369 29.0909 35.9753 32.3765C37.7073 32.7086 39.351 33.399 41 34C41 15.8202 39.2354 10 20 10z"/>
<path style="fill:#7ad35b; stroke:none;" d="M39 10L40 11L39 10M41 11L42 12L41 11M45 11L46 12L45 11z"/>
<path style="fill:#84e066; stroke:none;" d="M18 13L15 17L18 14L19 14L32 28L23 25L33 29L18 13z"/>
<path style="fill:#7ad35b; stroke:none;" d="M46.3333 13.6667L46.6667 14.3333L46.3333 13.6667z"/>
<path style="fill:#98ef63; stroke:none;" d="M18 14L4 29L16 25C16 41.7958 14.5682 58.8226 36 59L36 56C17.7363 55.8347 21 38.3607 21 25L32 28L18 14z"/>
<path style="fill:#7ad35b; stroke:none;" d="M42 15L43 16L42 15M47 16L47 38L48 38L47 16z"/>
<path style="fill:#84e066; stroke:none;" d="M3 28L4 29L3 28z"/>
<path style="fill:#7ad35b; stroke:none;" d="M33 28L34 29L33 28z"/>
<path style="fill:#010101; stroke:none;" d="M13 29L0 30L0 64L64 64L64 36L47 53C50.4927 53.0413 59.585 55.0618 54.392 60.3966C51.5786 63.2868 44.6482 62 41 62C29.5231 62 16.8135 60.881 14.3295 47C13.2801 41.136 15.322 34.5335 13 29z"/>
<path style="fill:#7ad35b; stroke:none;" d="M30 34L31 35L30 34M54 34L54 35L57 35L56 39L61 34L54 34z"/>
<path style="fill:#98ef63; stroke:none;" d="M32 35L32 36L36 38L32 35z"/>
<path style="fill:#7ad35b; stroke:none;" d="M52.6667 35.3333L53.3333 35.6667L52.6667 35.3333M39 36L40 37L39 36M51 36L52 37L51 36M40 37L41 38L40 37M50 37L51 38L50 37M48.6667 38.3333L49.3333 38.6667L48.6667 38.3333M55 39L56 40L55 39M54 40L55 41L54 40M53 41L54 42L53 41M52 42L53 43L52 42M39 43L40 44L39 43M51 43L52 44L51 43M40 44L41 45L40 44M50 44L51 45L50 44M41 45L42 46L41 45M49 45L50 46L49 45z"/>
<path style="fill:#84e066; stroke:none;" d="M16 46L17 47L16 46z"/>
<path style="fill:#7ad35b; stroke:none;" d="M42 46L43 47L42 46M48 46L49 47L48 46z"/>
<path style="fill:#84e066; stroke:none;" d="M21 47L22 48L21 47z"/>
<path style="fill:#7ad35b; stroke:none;" d="M43 47L44 48L43 47M47 47L48 48L47 47M44 48L45 49L44 48M46 48L47 49L46 48z"/>
<path style="fill:#84e066; stroke:none;" d="M17 49L18 50L17 49z"/>
<path style="fill:#7ad35b; stroke:none;" d="M45 49L46 50L45 49z"/>
<path style="fill:#84e066; stroke:none;" d="M18 51L19 52L18 51M22 51L23 52L22 51M24 52L25 53L24 52M19 53L20 54L19 53M26.6667 54.3333L27.3333 54.6667L26.6667 54.3333M20 55L21 56L20 55M28 55L28 56L36 56L36 59L29 59L29 60L53 59L53 56L28 55z"/>
<path style="fill:#7ad35b; stroke:none;" d="M46 55L46 56L53 56L53 59L46 59L46 60L54 60L54 55L46 55z"/>
<path style="fill:#84e066; stroke:none;" d="M23 57L24 58L23 57M26 58L26 59L29 59L26 58z"/>
</svg>
