<?xml version="1.0" standalone="yes"?>
<svg xmlns="http://www.w3.org/2000/svg" width="64" height="64">
<path style="fill:#010101; stroke:none;" d="M0 0L0 64L64 64L64 0L0 0z"/>
<path style="fill:#223f9f; stroke:none;" d="M42 15L12 15C8.24016 15.0077 2.78727 14.633 3.20679 19.9606C3.56887 24.5589 8.59595 23.993 12 24L42 24C41.1754 25.7134 40.4854 27.1202 40.2029 29.0247C37.4936 47.2896 60.8665 25.6765 60.0787 19C58.6862 7.19812 31.675 -6.45521 42 15z"/>
<path style="fill:#7298cc; stroke:none;" d="M42 4L43 5L42 4z"/>
<path style="fill:#82abd5; stroke:none;" d="M42 5L42 11L43 11L43 6L57 19L42 5z"/>
<path style="fill:#98b3e3; stroke:none;" d="M43 6L46 17L23 18L23 21L46 22L43 33L57 20L57 19L43 6z"/>
<path style="fill:#82abd5; stroke:none;" d="M43 12L44 13L43 12M44 13L45 14L44 13M45 14L46 15L45 14z"/>
<path style="fill:#7298cc; stroke:none;" d="M5 17L5 22L14 22L14 21L6 21L6 18L14 18L5 17z"/>
<path style="fill:#82abd5; stroke:none;" d="M6 18L6 21L43 22L43 21L23 21L23 18L43 18C32.5868 13.6304 17.0336 17.9087 6 18z"/>
<path style="fill:#7298cc; stroke:none;" d="M57 19L58 20L57 19z"/>
<path style="fill:#82abd5; stroke:none;" d="M56 20L57 21L56 20M55 21L56 22L55 21M54 22L55 23L54 22M53 23L54 24L53 23M45 24L46 25L45 24M52 24L53 25L52 24M44 25L45 26L44 25M51 25L52 26L51 25z"/>
<path style="fill:#223f9f; stroke:none;" d="M22 49L52 49C55.7598 48.9923 61.2127 49.367 60.7932 44.0394C60.4311 39.4411 55.404 40.007 52 40L22 40C22.8246 38.2866 23.5146 36.8797 23.7971 34.9753C26.5063 16.7104 3.13353 38.3235 3.9213 45C5.31382 56.8019 32.325 70.4552 22 49z"/>
<path style="fill:#82abd5; stroke:none;" d="M43 26L44 27L43 26M50 26L51 27L50 26M49 27L50 28L49 27M42 28L44 34L42 28M48 28L49 29L48 28z"/>
<path style="fill:#7298cc; stroke:none;" d="M21 29L6 44L6 45L22 60L7 45L7 44L21 29z"/>
<path style="fill:#82abd5; stroke:none;" d="M47 29L48 30L47 29M21 30L7 44L7 45L22 59L18 47L43 47L43 46L23 46L23 43L43 43L43 42L18 42L21 30M46 30L47 31L46 30M45 31L46 32L45 31M44 32L45 33L44 32z"/>
<path style="fill:#7298cc; stroke:none;" d="M42 34L43 35L42 34M21 35L22 36L21 35M20 37L21 38L20 37M19 38L20 39L19 38M18 39L19 40L18 39z"/>
<path style="fill:#98b3e3; stroke:none;" d="M23 43L23 46C32.0422 46 41.0106 46.9744 50 46.9992C51.7991 47.0042 58.7687 47.6422 58.0787 44.1698C57.5066 41.2908 52.0234 41.9952 50 42.0008C41.0106 42.0256 32.0422 43 23 43z"/>
<path style="fill:#82abd5; stroke:none;" d="M58 42L59 43L58 42M58 46L59 47L58 46z"/>
<path style="fill:#7298cc; stroke:none;" d="M18 49L19 50L18 49M19 50L20 51L19 50M20 51L21 52L20 51M21 53L22 54L21 53z"/>
</svg>
