/* XPM */
static const char * checkedbox_xpm[] = {
"13 13 3 1",
" 	c None",
".	c #000000",
"+	c #FFFFFF",
".............",
".+++++++++++.",
".+++++++++++.",
".++++++++.++.",
".+++++++..++.",
".++.+++...++.",
".++..+...+++.",
".++.....++++.",
".+++...+++++.",
".++++.++++++.",
".+++++++++++.",
".+++++++++++.",
"............."};

static const char * checkedgraybox_xpm[] = {
"13 13 4 1",
" 	c None",
".	c #000000",
"+	c #FFFFFF",
"@	c #808080",
".............",
".+++++++++++.",
".+++++++++++.",
".++++++++@++.",
".+++++++@@++.",
".++@+++@@@++.",
".++@@+@@@+++.",
".++@@@@@++++.",
".+++@@@+++++.",
".++++@++++++.",
".+++++++++++.",
".+++++++++++.",
"............."};

static const char * checkbox_xpm[] = {
"13 13 3 1",
" 	c None",
".	c #000000",
"+	c #FFFFFF",
".............",
".+++++++++++.",
".+++++++++++.",
".+++++++++++.",
".+++++++++++.",
".+++++++++++.",
".+++++++++++.",
".+++++++++++.",
".+++++++++++.",
".+++++++++++.",
".+++++++++++.",
".+++++++++++.",
"............."};
