/* XPM */
static const char * save_xpm[] = {
"22 22 190 2",
"  	c None",
". 	c #A8AAC6",
"+ 	c #B5B6CF",
"@ 	c #B4B3CE",
"# 	c #A1A1C0",
"$ 	c #9092B4",
"% 	c #9193B5",
"& 	c #9292B3",
"* 	c #8A8AAC",
"= 	c #8283A6",
"- 	c #7C7CA0",
"; 	c #74759C",
"> 	c #585B89",
", 	c #3E426F",
"' 	c #767C96",
") 	c #B4B6D0",
"! 	c #EAEAF0",
"~ 	c #EBECF3",
"{ 	c #8695B7",
"] 	c #566C9B",
"^ 	c #ACB6CD",
"/ 	c #E9E9EF",
"( 	c #E7E7EE",
"_ 	c #E5E5EC",
": 	c #E4E4EB",
"< 	c #E3E3EB",
"[ 	c #BEC7DD",
"} 	c #616B96",
"| 	c #1F2252",
"1 	c #ACAECC",
"2 	c #F2F6FA",
"3 	c #EEF4F9",
"4 	c #6F84AC",
"5 	c #445F92",
"6 	c #C3CDDF",
"7 	c #FFFFFF",
"8 	c #D5DFEF",
"9 	c #66749E",
"0 	c #181C4E",
"a 	c #9DA1C1",
"b 	c #D7DFEF",
"c 	c #E2EBF5",
"d 	c #AAB8D0",
"e 	c #9EADCA",
"f 	c #E3E8F2",
"g 	c #FEFFFF",
"h 	c #FEFEFF",
"i 	c #F9FDFF",
"j 	c #B5C0D5",
"k 	c #495683",
"l 	c #1D2050",
"m 	c #9497B9",
"n 	c #C1CAE3",
"o 	c #D3DEEE",
"p 	c #D6DEED",
"q 	c #D9E1F0",
"r 	c #D5DEEC",
"s 	c #CFD8E7",
"t 	c #CCD5E5",
"u 	c #C9D2E3",
"v 	c #C8D1E0",
"w 	c #B4BFD3",
"x 	c #808EAE",
"y 	c #384372",
"z 	c #191B4A",
"A 	c #8A8DB2",
"B 	c #B7C1DB",
"C 	c #B6C5DE",
"D 	c #ADBCD7",
"E 	c #A7B6D3",
"F 	c #94A7C7",
"G 	c #899CC0",
"H 	c #7F93B9",
"I 	c #7287AE",
"J 	c #62759E",
"K 	c #51638E",
"L 	c #455582",
"M 	c #313B6A",
"N 	c #191A48",
"O 	c #7E82A9",
"P 	c #ACB8D5",
"Q 	c #B4C3DC",
"R 	c #A8B7D2",
"S 	c #9BAAC9",
"T 	c #8F9EC0",
"U 	c #8090B3",
"V 	c #7180A7",
"W 	c #65739C",
"X 	c #596792",
"Y 	c #465481",
"Z 	c #273260",
"` 	c #141543",
" .	c #70749E",
"..	c #9EADCC",
"+.	c #CFD9E9",
"@.	c #EFF1F6",
"#.	c #F9FAFC",
"$.	c #F0F1F8",
"%.	c #E5E6F4",
"&.	c #D8DAEC",
"*.	c #CCCEE4",
"=.	c #CFCFE4",
"-.	c #B9BCD5",
";.	c #6F799D",
">.	c #182352",
",.	c #0D0F3D",
"'.	c #666B96",
").	c #96A5C6",
"!.	c #CBD4E7",
"~.	c #E8E9F6",
"{.	c #E8E7F8",
"].	c #D9D9EF",
"^.	c #D1D0E9",
"/.	c #C7C6E1",
"(.	c #BBBBD8",
"_.	c #BEBDDB",
":.	c #AEAECF",
"<.	c #687098",
"[.	c #111C4B",
"}.	c #0A0A38",
"|.	c #5B618E",
"1.	c #8596BA",
"2.	c #BCC6DE",
"3.	c #DCDDF1",
"4.	c #D8D7EF",
"5.	c #C3C3E0",
"6.	c #BCBCDA",
"7.	c #B3B2D3",
"8.	c #A7A7CA",
"9.	c #AAA8CB",
"0.	c #9C9CC0",
"a.	c #5B638B",
"b.	c #0C1542",
"c.	c #02022F",
"d.	c #4D5483",
"e.	c #7384AB",
"f.	c #ACB6D3",
"g.	c #D0CFEA",
"h.	c #CDCAE7",
"i.	c #B6B6D6",
"j.	c #AFAFD1",
"k.	c #A6A6CA",
"l.	c #9B9BC1",
"m.	c #9E9CC2",
"n.	c #8F90B7",
"o.	c #505981",
"p.	c #07103A",
"q.	c #000028",
"r.	c #424779",
"s.	c #65759E",
"t.	c #A2ACCB",
"u.	c #CCCBE6",
"v.	c #CAC9E5",
"w.	c #B2B3D4",
"x.	c #ABABCD",
"y.	c #A2A2C5",
"z.	c #9898BC",
"A.	c #9A98BE",
"B.	c #8889B2",
"C.	c #485078",
"D.	c #020A31",
"E.	c #000024",
"F.	c #303268",
"G.	c #495380",
"H.	c #7C81A4",
"I.	c #A3A2BE",
"J.	c #A4A4C0",
"K.	c #8F90B0",
"L.	c #8A8AAA",
"M.	c #8181A4",
"N.	c #79799C",
"O.	c #7B7A9E",
"P.	c #696A92",
"Q.	c #33375F",
"R.	c #000226",
"S.	c #000022",
"T.	c #13134C",
"U.	c #17174D",
"V.	c #232352",
"W.	c #2F2F5A",
"X.	c #32325B",
"Y.	c #2B2B55",
"Z.	c #292953",
"`.	c #252551",
" +	c #22224E",
".+	c #232350",
"++	c #1D1D4B",
"@+	c #0D0D37",
"#+	c #000023",
"$+	c #000025",
"                                            ",
"                                            ",
"                                            ",
"                                            ",
"        . + @ # $ % & * = - ; > , '         ",
"        ) ! ~ { ] ^ / ( _ : < [ } |         ",
"        1 2 3 4 5 6 7 7 7 7 7 8 9 0         ",
"        a b c d e f g h 7 7 i j k l         ",
"        m n o p q r s t u v w x y z         ",
"        A B C D E F G H I J K L M N         ",
"        O P Q D R S T U V W X Y Z `         ",
"         ...+.@.#.$.%.&.*.=.-.;.>.,.        ",
"        '.).!.~.{.].^./.(._.:.<.[.}.        ",
"        |.1.2.3.4.5.6.7.8.9.0.a.b.c.        ",
"        d.e.f.g.h.i.j.k.l.m.n.o.p.q.        ",
"        r.s.t.u.v.w.x.y.z.A.B.C.D.E.        ",
"        F.G.H.I.J.K.L.M.N.O.P.Q.R.S.        ",
"        T.U.V.W.X.Y.Z.`. +.+++@+#+$+        ",
"                                            ",
"                                            ",
"                                            ",
"                                            "};
